<svg xmlns="http://www.w3.org/2000/svg" width="36.6" height="27.39" viewBox="0 0 3660 2739" fill="none">
<path xmlns="http://www.w3.org/2000/svg" d="M3660 1245.17L2994.37 747.229L2827.8 871.552L2495.31 622.262L2661.88 497.937L1996.25 0L1829.68 124.323L1663.11 0L997.479 497.937L1164.05 622.262L831.555 871.552L665.631 747.229L0 1245.17L166.57 1369.49L0 1493.81L665.631 1991.75L831.555 1867.43L1164.05 2116.72L997.479 2241.04L1663.11 2738.98L1829.68 2614.66L1996.25 2738.98L2661.88 2241.04L2495.31 2116.72L2827.8 1867.43L2994.37 1991.75L3660 1493.81L3493.44 1369.49L3660 1245.17ZM1497.18 1369.49L1830.33 1120.2L2162.82 1369.49L1830.33 1618.14L1497.18 1369.49Z" fill="#2E008B"/>
<style>@media (prefers-color-scheme: dark) {  path {    fill: #FFF;  }}</style></svg>