<svg width="3661" height="2739" viewBox="0 0 3661 2739" fill="none" xmlns="http://www.w3.org/2000/svg">
<path d="M3660.82 1245.17L2995.19 747.229L2828.63 871.552L2496.14 622.262L2662.7 497.937L1997.07 0L1830.5 124.323L1663.93 0L998.301 497.937L1164.87 622.262L832.377 871.552L666.454 747.229L0.822266 1245.17L167.392 1369.49L0.822266 1493.81L666.454 1991.75L832.377 1867.43L1164.87 2116.71L998.301 2241.04L1663.93 2738.98L1830.5 2614.66L1997.07 2738.98L2662.7 2241.04L2496.14 2116.71L2828.63 1867.43L2995.19 1991.75L3660.82 1493.81L3494.26 1369.49L3660.82 1245.17ZM1498 1369.49L1831.15 1120.2L2163.64 1369.49L1831.15 1618.14L1498 1369.49Z" fill="#F3F5F9"/>
</svg>
