<svg width="40" height="40" fill="none" viewBox="0 0 149 139" xmlns="http://www.w3.org/2000/svg">
<path d="m40.548 35h22.172m46.281 0h-22.281m-24 0v-6.5c0-1.933 1.567-3.5 3.5-3.5h17v0c1.933 0 3.5 1.567 3.5 3.5v6.5m-24 0h24" stroke="#535353" stroke-linecap="round" stroke-width="6"></path>
<path d="m47.511 38v-3h-6v3h6zm-3 70.5h-3v0.05l0.0017 0.051 2.9983-0.101zm4.5 5-0.2431 2.99 0.1214 0.01h0.1217v-3zm52 0v3h0.05l0.05-2e-3 -0.1-2.998zm4-5h-3v0.078l4e-3 0.078 2.996-0.156zm3-70.5v-3h-6v3h6zm-42.5 11c0-1.6569-1.3431-3-3-3-1.6568 0-3 1.3431-3 3h6zm-6 51c0 1.657 1.3432 3 3 3 1.6569 0 3-1.343 3-3h-6zm18-51c0-1.6569-1.3431-3-3-3-1.6568 0-3 1.3431-3 3h6zm-6 51c0 1.657 1.3432 3 3 3 1.6569 0 3-1.343 3-3h-6zm18-51c0-1.6569-1.3431-3-3-3-1.6568 0-3 1.3431-3 3h6zm-6 51c0 1.657 1.3432 3 3 3 1.6569 0 3-1.343 3-3h-6zm-42-62v0.1615 0.1618 0.1622 0.1626 0.1629 0.1632 0.1635 0.1639 0.1643 0.1645 0.1649 0.1652 0.1656 0.1658 0.1662 0.1665 0.1668 0.1671 0.1674 0.1677 0.168 0.1683 0.1686 0.1689 0.1692 0.1695 0.1698 0.17 0.1703 0.1706 0.1709 0.1712 0.1714 0.1717 0.1719 0.1723 0.1724 0.1728 0.173 0.1732 0.1735 0.1737 0.174 0.1742 0.1745 0.1747 0.1749 0.1751 0.1754 0.1756 0.1759 0.176 0.1763 0.1765 0.1767 0.1769 0.1771 0.1773 0.1775 0.1778 0.1779 0.1781 0.1783 0.1785 0.1787 0.1788 0.1791 0.1792 0.1794 0.1795 0.1798 0.1799 0.1801 0.1802 0.1804 0.1806 0.1807 0.1808 0.181 0.1812 0.1813 0.1814 0.1816 0.1817 0.1819 0.182 0.1821 0.1822 0.1824 0.1825 0.1826 0.1827 0.1828 0.183 0.183 0.1832 0.1832 0.1834 0.1834 0.1836 0.1836 0.1838 0.1838 0.1839 0.184 0.184 0.1842 0.1842 0.1843 0.1843 0.1844 0.1845 0.1846 0.1846 0.1846 0.1847 0.1848 0.1848 0.1849 0.1849 0.1849 0.185 0.185 0.185 0.1851 0.1851 0.1851 0.1852 0.1851 0.1852 0.1852 0.1852 0.1852 0.1852 0.1853 0.1852 0.1852 0.1852 0.1853 0.1852 0.1851 0.1852 0.1852 0.1851 0.1851 0.1851 0.1851 0.185 0.185 0.185 0.1849 0.1849 0.1848 0.1848 0.1848 0.1846 0.1847 0.1846 0.1845 0.1845 0.1843 0.1844 0.1842 0.1842 0.1841 0.1841 0.1839 0.1839 0.1838 0.1837 0.1836 0.1835 0.1834 0.1834 0.1832 0.1831 0.183 0.1829 0.1828 0.1827 0.1825 0.1825 0.1823 0.1822 0.1821 0.1819 0.1818 0.1817 0.1815 0.1814 0.1812 0.1811 0.181 0.1808 0.1807 0.1805 0.1803 0.1802 0.18 0.1798 0.1797 0.1795 0.1794 0.1791 0.179 0.1788 0.1786 0.1784 0.1783 0.178 0.1778 0.1777 0.1774 0.1773 0.177 0.1769 0.1766 0.1764 0.1762 0.176 0.1757 0.1755 0.1753 0.1751 0.1749 0.1746 0.1743 0.1742 0.1739 0.1736 0.1734 0.1731 0.1729 0.1727 0.1724 0.1721 0.1719 0.1715 0.1714 0.171 0.1708 0.1705 0.1703 0.1699 0.1697 0.1693 0.1691 0.1688 0.1685 0.1682 0.1679 0.1676 0.1673 0.167 0.1667 0.1664 0.166 0.1658 0.1654 0.1651 0.1648 0.1644 0.1641 0.1638 0.1634 0.1631 0.1628 0.1624 0.1621 0.1617 0.1614 0.161 0.1606 0.1603 0.16 0.1595 0.1593 0.1588 0.1585 0.158 0.1577 0.1574 0.1569 0.1566 0.1562 0.1557 0.1554 0.155 0.1546 0.1542 0.1538 0.1534 0.153 0.1525 0.1522 0.1517 0.1513 0.1509 0.1505 0.15 0.1496 0.1492 0.1487 0.1483 0.1479 0.1474 0.147 0.1465 0.1461 0.1456 0.1451 0.1448 0.1442 0.1438 0.1433 0.1428 0.1424 0.1419 0.1414 0.141 0.1404 0.14 0.1395 0.139 0.1385 0.138 0.1375 0.137 0.1365 0.136 0.1355 0.135 0.1345 0.1339 0.1335 0.1329 0.1324 0.1318 0.1314 0.1308 0.1302 0.1298 0.1292 0.1286 0.1281 0.1276 0.127 0.1264 0.1259 0.1254 0.1247 0.1243 0.1236 0.1231 0.1225 0.1219 0.1214 0.1208 0.1202 0.1196 0.119 0.1185 0.1178 0.1173 0.1167 0.116 0.1155 0.1148 0.1143 0.1136 0.113 0.1123 0.112 0.111 0.111 0.11 0.109 0.108 0.109 0.107 0.107 0.106 0.105 0.105 0.104 0.104 0.103 0.102 0.101 0.101 0.1 0.1 0.099 0.098 0.098 0.096 0.097 0.095 0.095 0.094 0.094 0.092 0.092 0.092 0.09 0.09 0.089 0.089 0.088 0.087 0.086 0.086 0.085 0.084 0.083 0.083 0.082 0.081 0.081 0.08 0.079 0.078 0.078 0.077 0.076 0.075 0.074 0.074 0.073 0.073 0.071 0.071 0.07 0.069 0.068 0.068 0.067 0.066 0.065 0.064 0.064 0.063 0.062 0.061 0.061 0.059 0.059 0.058 0.057 0.056 0.056 0.055 0.054 0.053 0.052 0.051 0.051 0.05 0.049 0.048 0.047 0.046 0.046 0.044 0.044 0.043 0.042 0.041 0.04 0.04 0.038 0.038 0.037 0.036 0.035 0.034 0.033 0.033 0.031 0.031 0.029 0.029 0.028 0.027 0.026 0.025 0.024 0.024 0.022 0.022 0.02 0.02 0.018 0.018 0.017 0.016 0.015 0.014 0.013 0.012 0.011 0.01 9e-3 9e-3 7e-3 6e-3 6e-3 4e-3 4e-3 2e-3 2e-3h3 3v-2e-3 -2e-3 -4e-3 -4e-3 -6e-3 -6e-3 -7e-3 -9e-3 -9e-3 -0.01-0.011-0.012-0.013-0.014-0.015-0.016-0.017-0.018-0.018-0.02-0.02-0.022-0.022-0.024-0.024-0.025-0.026-0.027-0.028-0.029-0.029-0.031-0.031-0.033-0.033-0.034-0.035-0.036-0.037-0.038-0.038-0.04-0.04-0.041-0.042-0.043-0.044-0.044-0.046-0.046-0.047-0.048-0.049-0.05-0.051-0.051-0.052-0.053-0.054-0.055-0.056-0.056-0.057-0.058-0.059-0.059-0.061-0.061-0.062-0.063-0.064-0.064-0.065-0.066-0.067-0.068-0.068-0.069-0.07-0.071-0.071-0.073-0.073-0.074-0.074-0.075-0.076-0.077-0.078-0.078-0.079-0.08-0.081-0.081-0.082-0.083-0.083-0.084-0.085-0.086-0.086-0.087-0.088-0.089-0.089-0.09-0.09-0.092-0.092-0.092-0.094-0.094-0.095-0.095-0.097-0.096-0.098-0.098-0.099-0.1-0.1-0.101-0.101-0.102-0.103-0.104-0.104-0.105-0.105-0.106-0.107-0.107-0.109-0.108-0.109-0.11-0.111-0.111-0.112-0.1123-0.113-0.1136-0.1143-0.1148-0.1155-0.116-0.1167-0.1173-0.1178-0.1185-0.119-0.1196-0.1202-0.1208-0.1214-0.1219-0.1225-0.1231-0.1236-0.1243-0.1247-0.1254-0.1259-0.1264-0.127-0.1276-0.1281-0.1286-0.1292-0.1298-0.1302-0.1308-0.1314-0.1318-0.1324-0.1329-0.1335-0.1339-0.1345-0.135-0.1355-0.136-0.1365-0.137-0.1375-0.138-0.1385-0.139-0.1395-0.14-0.1404-0.141-0.1414-0.1419-0.1424-0.1428-0.1433-0.1438-0.1442-0.1448-0.1451-0.1456-0.1461-0.1465-0.147-0.1474-0.1479-0.1483-0.1487-0.1492-0.1496-0.15-0.1505-0.1509-0.1513-0.1517-0.1522-0.1525-0.153-0.1534-0.1538-0.1542-0.1546-0.155-0.1554-0.1557-0.1562-0.1566-0.1569-0.1574-0.1577-0.158-0.1585-0.1588-0.1593-0.1595-0.16-0.1603-0.1606-0.161-0.1614-0.1617-0.1621-0.1624-0.1628-0.1631-0.1634-0.1638-0.1641-0.1644-0.1648-0.1651-0.1654-0.1658-0.166-0.1664-0.1667-0.167-0.1673-0.1676-0.1679-0.1682-0.1685-0.1688-0.1691-0.1693-0.1697-0.1699-0.1703-0.1705-0.1708-0.171-0.1714-0.1715-0.1719-0.1721-0.1724-0.1727-0.1729-0.1731-0.1734-0.1736-0.1739-0.1742-0.1743-0.1746-0.1749-0.1751-0.1753-0.1755-0.1757-0.176-0.1762-0.1764-0.1766-0.1769-0.177-0.1773-0.1774-0.1777-0.1778-0.178-0.1783-0.1784-0.1786-0.1788-0.179-0.1791-0.1794-0.1795-0.1797-0.1798-0.18-0.1802-0.1803-0.1805-0.1807-0.1808-0.181-0.1811-0.1812-0.1814-0.1815-0.1817-0.1818-0.1819-0.1821-0.1822-0.1823-0.1825-0.1825-0.1827-0.1828-0.1829-0.183-0.1831-0.1832-0.1834-0.1834-0.1835-0.1836-0.1837-0.1838-0.1839-0.1839-0.1841-0.1841-0.1842-0.1842-0.1844-0.1843-0.1845-0.1845-0.1846-0.1847-0.1846-0.1848-0.1848-0.1848-0.1849-0.1849-0.185-0.185-0.185-0.1851-0.1851-0.1851-0.1851-0.1852-0.1852-0.1851-0.1852-0.1853-0.1852-0.1852-0.1852-0.1853-0.1852-0.1852-0.1852-0.1852-0.1852-0.1851-0.1852-0.1851-0.1851-0.1851-0.185-0.185-0.185-0.1849-0.1849-0.1849-0.1848-0.1848-0.1847-0.1846-0.1846-0.1846-0.1845-0.1844-0.1843-0.1843-0.1842-0.1842-0.184-0.184-0.1839-0.1838-0.1838-0.1836-0.1836-0.1834-0.1834-0.1832-0.1832-0.183-0.183-0.1828-0.1827-0.1826-0.1825-0.1824-0.1822-0.1821-0.182-0.1819-0.1817-0.1816-0.1814-0.1813-0.1812-0.181-0.1808-0.1807-0.1806-0.1804-0.1802-0.1801-0.1799-0.1798-0.1795-0.1794-0.1792-0.1791-0.1788-0.1787-0.1785-0.1783-0.1781-0.1779-0.1778-0.1775-0.1773-0.1771-0.1769-0.1767-0.1765-0.1763-0.176-0.1759-0.1756-0.1754-0.1751-0.1749-0.1747-0.1745-0.1742-0.174-0.1737-0.1735-0.1732-0.173-0.1728-0.1724-0.1723-0.1719-0.1717-0.1714-0.1712-0.1709-0.1706-0.1703-0.17-0.1698-0.1695-0.1692-0.1689-0.1686-0.1683-0.168-0.1677-0.1674-0.1671-0.1668-0.1665-0.1662-0.1658-0.1656-0.1652-0.1649-0.1645-0.1643-0.1639-0.1635-0.1632-0.1629-0.1626-0.1622-0.1618-0.1615h-6zm0.0017 70.601c0.0627 1.865 0.3251 4.014 1.7651 5.634 1.4954 1.682 3.6238 2.103 5.4901 2.255l0.4863-5.98c-1.5638-0.127-1.6251-0.411-1.492-0.261 0.0548 0.061-1e-3 0.042-0.0756-0.245-0.0808-0.312-0.1505-0.809-0.1772-1.605l-5.9967 0.202zm7.4983 7.899h52v-6h-52v6zm52.1-2e-3c1.759-0.059 4.05-0.361 5.554-2.233 1.389-1.728 1.441-4.025 1.342-5.921l-5.992 0.312c0.045 0.857 0.016 1.391-0.039 1.72-0.052 0.312-0.102 0.272 0.012 0.131 0.136-0.169 0.263-0.191 0.149-0.154-0.164 0.053-0.524 0.125-1.227 0.149l0.201 5.996zm3.9-7.998h3v-2e-3 -2e-3 -4e-3 -4e-3 -6e-3 -6e-3 -7e-3 -9e-3 -9e-3 -0.01-0.011-0.012-0.013-0.014-0.015-0.016-0.017-0.018-0.018-0.02-0.02-0.022-0.022-0.024-0.024-0.025-0.026-0.027-0.028-0.029-0.029-0.031-0.031-0.033-0.033-0.034-0.035-0.036-0.037-0.038-0.038-0.04-0.04-0.041-0.042-0.043-0.044-0.044-0.046-0.046-0.047-0.048-0.049-0.05-0.051-0.051-0.052-0.053-0.054-0.055-0.056-0.056-0.057-0.058-0.059-0.059-0.061-0.061-0.062-0.063-0.064-0.064-0.065-0.066-0.067-0.068-0.068-0.069-0.07-0.071-0.071-0.073-0.073-0.074-0.074-0.075-0.076-0.077-0.078-0.078-0.079-0.08-0.081-0.081-0.082-0.083-0.083-0.084-0.085-0.086-0.086-0.087-0.088-0.089-0.089-0.09-0.09-0.092-0.092-0.092-0.094-0.094-0.095-0.095-0.097-0.096-0.098-0.098-0.099-0.1-0.1-0.101-0.101-0.102-0.103-0.104-0.104-0.105-0.105-0.106-0.107-0.107-0.109-0.108-0.109-0.11-0.111-0.111-0.112-0.1123-0.113-0.1136-0.1143-0.1148-0.1155-0.116-0.1167-0.1173-0.1178-0.1185-0.119-0.1196-0.1202-0.1208-0.1214-0.1219-0.1225-0.1231-0.1236-0.1243-0.1247-0.1254-0.1259-0.1264-0.127-0.1276-0.1281-0.1286-0.1292-0.1298-0.1302-0.1308-0.1314-0.1318-0.1324-0.1329-0.1335-0.1339-0.1345-0.135-0.1355-0.136-0.1365-0.137-0.1375-0.138-0.1385-0.139-0.1395-0.14-0.1404-0.141-0.1414-0.1419-0.1424-0.1428-0.1433-0.1438-0.1442-0.1448-0.1451-0.1456-0.1461-0.1465-0.147-0.1474-0.1479-0.1483-0.1487-0.1492-0.1496-0.15-0.1505-0.1509-0.1513-0.1517-0.1522-0.1525-0.153-0.1534-0.1538-0.1542-0.1546-0.155-0.1554-0.1557-0.1562-0.1566-0.1569-0.1574-0.1577-0.158-0.1585-0.1588-0.1593-0.1595-0.16-0.1603-0.1606-0.161-0.1614-0.1617-0.1621-0.1624-0.1628-0.1631-0.1634-0.1638-0.1641-0.1644-0.1648-0.1651-0.1654-0.1658-0.166-0.1664-0.1667-0.167-0.1673-0.1676-0.1679-0.1682-0.1685-0.1688-0.1691-0.1693-0.1697-0.1699-0.1703-0.1705-0.1708-0.171-0.1714-0.1715-0.1719-0.1721-0.1724-0.1727-0.1729-0.1731-0.1734-0.1736-0.1739-0.1742-0.1743-0.1746-0.1749-0.1751-0.1753-0.1755-0.1757-0.176-0.1762-0.1764-0.1766-0.1769-0.177-0.1773-0.1774-0.1777-0.1778-0.178-0.1783-0.1784-0.1786-0.1788-0.179-0.1791-0.1794-0.1795-0.1797-0.1798-0.18-0.1802-0.1803-0.1805-0.1807-0.1808-0.181-0.1811-0.1812-0.1814-0.1815-0.1817-0.1818-0.1819-0.1821-0.1822-0.1823-0.1825-0.1825-0.1827-0.1828-0.1829-0.183-0.1831-0.1832-0.1834-0.1834-0.1835-0.1836-0.1837-0.1838-0.1839-0.1839-0.1841-0.1841-0.1842-0.1842-0.1844-0.1843-0.1845-0.1845-0.1846-0.1847-0.1846-0.1848-0.1848-0.1848-0.1849-0.1849-0.185-0.185-0.185-0.1851-0.1851-0.1851-0.1851-0.1852-0.1852-0.1851-0.1852-0.1853-0.1852-0.1852-0.1852-0.1853-0.1852-0.1852-0.1852-0.1852-0.1852-0.1851-0.1852-0.1851-0.1851-0.1851-0.185-0.185-0.185-0.1849-0.1849-0.1849-0.1848-0.1848-0.1847-0.1846-0.1846-0.1846-0.1845-0.1844-0.1843-0.1843-0.1842-0.1842-0.184-0.184-0.1839-0.1838-0.1838-0.1836-0.1836-0.1834-0.1834-0.1832-0.1832-0.183-0.183-0.1828-0.1827-0.1826-0.1825-0.1824-0.1822-0.1821-0.182-0.1819-0.1817-0.1816-0.1814-0.1813-0.1812-0.181-0.1808-0.1807-0.1806-0.1804-0.1802-0.1801-0.1799-0.1798-0.1795-0.1794-0.1792-0.1791-0.1788-0.1787-0.1785-0.1783-0.1781-0.1779-0.1778-0.1775-0.1773-0.1771-0.1769-0.1767-0.1765-0.1763-0.176-0.1759-0.1756-0.1754-0.1751-0.1749-0.1747-0.1745-0.1742-0.174-0.1737-0.1735-0.1732-0.173-0.1728-0.1724-0.1723-0.1719-0.1717-0.1714-0.1712-0.1709-0.1706-0.1703-0.17-0.1698-0.1695-0.1692-0.1689-0.1686-0.1683-0.168-0.1677-0.1674-0.1671-0.1668-0.1665-0.1662-0.1658-0.1656-0.1652-0.1649-0.1645-0.1643-0.1639-0.1635-0.1632-0.1629-0.1626-0.1622-0.1618-0.1615h-6v0.1615 0.1618 0.1622 0.1626 0.1629 0.1632 0.1635 0.1639 0.1643 0.1645 0.1649 0.1652 0.1656 0.1658 0.1662 0.1665 0.1668 0.1671 0.1674 0.1677 0.168 0.1683 0.1686 0.1689 0.1692 0.1695 0.1698 0.17 0.1703 0.1706 0.1709 0.1712 0.1714 0.1717 0.1719 0.1723 0.1724 0.1728 0.173 0.1732 0.1735 0.1737 0.174 0.1742 0.1745 0.1747 0.1749 0.1751 0.1754 0.1756 0.1759 0.176 0.1763 0.1765 0.1767 0.1769 0.1771 0.1773 0.1775 0.1778 0.1779 0.1781 0.1783 0.1785 0.1787 0.1788 0.1791 0.1792 0.1794 0.1795 0.1798 0.1799 0.1801 0.1802 0.1804 0.1806 0.1807 0.1808 0.181 0.1812 0.1813 0.1814 0.1816 0.1817 0.1819 0.182 0.1821 0.1822 0.1824 0.1825 0.1826 0.1827 0.1828 0.183 0.183 0.1832 0.1832 0.1834 0.1834 0.1836 0.1836 0.1838 0.1838 0.1839 0.184 0.184 0.1842 0.1842 0.1843 0.1843 0.1844 0.1845 0.1846 0.1846 0.1846 0.1847 0.1848 0.1848 0.1849 0.1849 0.1849 0.185 0.185 0.185 0.1851 0.1851 0.1851 0.1852 0.1851 0.1852 0.1852 0.1852 0.1852 0.1852 0.1853 0.1852 0.1852 0.1852 0.1853 0.1852 0.1851 0.1852 0.1852 0.1851 0.1851 0.1851 0.1851 0.185 0.185 0.185 0.1849 0.1849 0.1848 0.1848 0.1848 0.1846 0.1847 0.1846 0.1845 0.1845 0.1843 0.1844 0.1842 0.1842 0.1841 0.1841 0.1839 0.1839 0.1838 0.1837 0.1836 0.1835 0.1834 0.1834 0.1832 0.1831 0.183 0.1829 0.1828 0.1827 0.1825 0.1825 0.1823 0.1822 0.1821 0.1819 0.1818 0.1817 0.1815 0.1814 0.1812 0.1811 0.181 0.1808 0.1807 0.1805 0.1803 0.1802 0.18 0.1798 0.1797 0.1795 0.1794 0.1791 0.179 0.1788 0.1786 0.1784 0.1783 0.178 0.1778 0.1777 0.1774 0.1773 0.177 0.1769 0.1766 0.1764 0.1762 0.176 0.1757 0.1755 0.1753 0.1751 0.1749 0.1746 0.1743 0.1742 0.1739 0.1736 0.1734 0.1731 0.1729 0.1727 0.1724 0.1721 0.1719 0.1715 0.1714 0.171 0.1708 0.1705 0.1703 0.1699 0.1697 0.1693 0.1691 0.1688 0.1685 0.1682 0.1679 0.1676 0.1673 0.167 0.1667 0.1664 0.166 0.1658 0.1654 0.1651 0.1648 0.1644 0.1641 0.1638 0.1634 0.1631 0.1628 0.1624 0.1621 0.1617 0.1614 0.161 0.1606 0.1603 0.16 0.1595 0.1593 0.1588 0.1585 0.158 0.1577 0.1574 0.1569 0.1566 0.1562 0.1557 0.1554 0.155 0.1546 0.1542 0.1538 0.1534 0.153 0.1525 0.1522 0.1517 0.1513 0.1509 0.1505 0.15 0.1496 0.1492 0.1487 0.1483 0.1479 0.1474 0.147 0.1465 0.1461 0.1456 0.1451 0.1448 0.1442 0.1438 0.1433 0.1428 0.1424 0.1419 0.1414 0.141 0.1404 0.14 0.1395 0.139 0.1385 0.138 0.1375 0.137 0.1365 0.136 0.1355 0.135 0.1345 0.1339 0.1335 0.1329 0.1324 0.1318 0.1314 0.1308 0.1302 0.1298 0.1292 0.1286 0.1281 0.1276 0.127 0.1264 0.1259 0.1254 0.1247 0.1243 0.1236 0.1231 0.1225 0.1219 0.1214 0.1208 0.1202 0.1196 0.119 0.1185 0.1178 0.1173 0.1167 0.116 0.1155 0.1148 0.1143 0.1136 0.113 0.1123 0.112 0.111 0.111 0.11 0.109 0.108 0.109 0.107 0.107 0.106 0.105 0.105 0.104 0.104 0.103 0.102 0.101 0.101 0.1 0.1 0.099 0.098 0.098 0.096 0.097 0.095 0.095 0.094 0.094 0.092 0.092 0.092 0.09 0.09 0.089 0.089 0.088 0.087 0.086 0.086 0.085 0.084 0.083 0.083 0.082 0.081 0.081 0.08 0.079 0.078 0.078 0.077 0.076 0.075 0.074 0.074 0.073 0.073 0.071 0.071 0.07 0.069 0.068 0.068 0.067 0.066 0.065 0.064 0.064 0.063 0.062 0.061 0.061 0.059 0.059 0.058 0.057 0.056 0.056 0.055 0.054 0.053 0.052 0.051 0.051 0.05 0.049 0.048 0.047 0.046 0.046 0.044 0.044 0.043 0.042 0.041 0.04 0.04 0.038 0.038 0.037 0.036 0.035 0.034 0.033 0.033 0.031 0.031 0.029 0.029 0.028 0.027 0.026 0.025 0.024 0.024 0.022 0.022 0.02 0.02 0.018 0.018 0.017 0.016 0.015 0.014 0.013 0.012 0.011 0.01 9e-3 9e-3 7e-3 6e-3 6e-3 4e-3 4e-3 2e-3 2e-3h3zm-45.5-59.5v51h6v-51h-6zm12 0v51h6v-51h-6zm12 0v51h6v-51h-6z" fill="#535353"></path>
<style>svg:hover > :first-child {
        transform: rotate(11deg) translate(-3px, 10px);
    }
	svg:active > :first-child {
        stroke: #BC0000;
    }
	svg:active > :last-child {
        fill: #BC0000;
    }
    svg > :first-child {
        transform-origin: right;
        transition: transform 300ms ease-in-out;
    }</style>
</svg>